<?xml version="1.0" encoding="utf-8"?>
<!-- Generator: Adobe Illustrator 28.0.0, SVG Export Plug-In . SVG Version: 6.00 Build 0)  -->
<svg version="1.1" id="Layer_1" xmlns="http://www.w3.org/2000/svg" xmlns:xlink="http://www.w3.org/1999/xlink" x="0px" y="0px"
	 viewBox="0 0 429.7 355.2" style="enable-background:new 0 0 429.7 355.2;" xml:space="preserve">
<style type="text/css">
	.st0{display:none;}
	.st1{display:inline;fill:#E6E7E8;}
	.st2{display:inline;fill:#FFFFFF;}
	.st3{display:inline;fill:#231F20;}
	.st4{display:inline;fill:#7C5DFA;}
	.st5{display:inline;fill:#D1D3D4;}
	.st6{clip-path:url(#SVGID_00000174586374796152358750000012927730793865644459_);}
	.st7{fill:#5D8CFA;}
	.st8{fill:#FFE6D8;}
	.st9{fill:#E4CBC4;}
	.st10{fill:#591B1B;}
	.st11{fill:#FFDFCC;}
	.st12{fill:#E9E9E9;}
	.st13{fill:#0A008C;}
	.st14{fill:#0047D6;}
	.st15{fill:#FFFFFF;stroke:#000000;stroke-width:0.25;stroke-miterlimit:10;}
	.st16{fill:#E9F4F2;}
	.st17{fill:#221F20;}
	.st18{fill:#231F20;}
	.st19{fill:#9A5835;}
	.st20{fill:#E9F3F1;}
	.st21{fill:#E4EAE6;}
	.st22{fill:#232021;}
	.st23{fill:#351F16;}
	.st24{fill:#533F40;}
	.st25{fill:#7F4C4C;}
	.st26{fill:#764949;}
	.st27{fill:#6E5050;}
	.st28{fill:#875A59;}
	.st29{fill:#AA6160;}
</style>
<g class="st0">
	<path class="st1" d="M221.2,290.2l85-53.7l85,53.7v78.3H221.2V290.2z"/>
	<path class="st1" d="M190.1,206.4"/>
	<path class="st2" d="M327,269.2c2.8-4.7,3.5-10.3,3.3-15.8c-0.2-6-1.8-11.8-4.6-17c-1.2-2.3-2.8-4.2-4.9-5.6
		c-2.6-1.6-4.3-0.5-6.8-0.9c-2.1-0.4-4.3-1.9-6.7-2.2c-5.4-0.9-10.9,0.2-15.5,3.2c-8,5.4-11.7,15.7-20,20.8
		c-8.1,4.9-18.5,3.4-27.6,6.1c-3.8,1.1-7.4,3-10.5,5.6c-2.1,1.6-3.9,3.7-5.2,6.1c-2.1,4.5-1.6,9.8,0,14.5c1.6,4.8,4.2,9.4,8.4,12.4
		c3.5,2.5,7.7,3.6,11.9,4.4c5.7,1,11.6,1.4,17.3,0.2c4.2-0.8,8.1-2.8,11.4-5.5c1.4-1.2,2.2-3,3.5-4.2c1.8-1.7,4.6-2.8,6.7-4.1
		c3.3-2.1,6.6-4.2,10.4-5.2C307.7,279.3,321.2,278.6,327,269.2L327,269.2z"/>
	<path class="st3" d="M258.5,302c-3.3,0-6.6-0.3-9.8-1c-3.6-0.7-8.3-1.8-12.1-4.5c-3.8-2.7-6.7-7.1-8.5-12.6
		c-1.3-3.9-2.4-9.7,0.1-14.7c1.3-2.5,3-4.6,5.2-6.3c3.1-2.5,6.8-4.5,10.6-5.6c3.7-1,7.4-1.6,11.2-1.9c5.9-0.6,11.4-1.3,16.3-4.2
		c4.2-2.6,7.3-6.6,10.3-10.5c2.8-3.7,5.8-7.6,9.7-10.2c4.6-3.1,10.3-4.3,15.8-3.3c1.3,0.3,2.5,0.7,3.6,1.2c1,0.5,2,0.8,3.1,1
		c0.8,0.1,1.6,0.1,2.4,0.1c1.6-0.2,3.2,0.1,4.5,0.9c2.1,1.5,3.9,3.4,5,5.8c2.9,5.3,4.5,11.2,4.6,17.2c0.3,6.5-0.8,11.8-3.3,16
		c-4.7,7.7-14.4,9.7-23,11.4c-2.2,0.4-4.2,0.9-6.1,1.3c-3.4,0.9-6.5,2.8-9.5,4.6l-0.8,0.5c-0.8,0.5-1.6,0.9-2.4,1.3
		c-1.5,0.7-3,1.6-4.3,2.7c-0.6,0.6-1.1,1.2-1.6,1.9c-0.5,0.8-1.2,1.6-1.9,2.3c-3.3,2.9-7.3,4.8-11.6,5.7
		C263.7,301.8,261.1,302,258.5,302L258.5,302z M303.7,227.6c-4.2,0-8.2,1.2-11.7,3.5c-3.8,2.6-6.7,6.4-9.5,10
		c-3,4-6.1,8.1-10.5,10.7c-5,3-10.9,3.7-16.5,4.3c-3.7,0.3-7.4,0.9-11.1,1.9c-3.8,1.1-7.3,3-10.4,5.5c-2.1,1.6-3.8,3.7-5.1,6
		c-2.3,4.8-1.3,10.3,0,14.2c1.8,5.4,4.6,9.7,8.2,12.3c3.6,2.6,8.2,3.7,11.8,4.3c6.6,1.2,12.2,1.2,17.2,0.2c4.2-0.8,8.1-2.7,11.3-5.5
		c0.7-0.6,1.3-1.4,1.8-2.1c0.5-0.7,1.1-1.4,1.7-2c1.3-1.1,2.8-2.1,4.4-2.8c0.8-0.4,1.6-0.8,2.4-1.3l0.8-0.5c3-1.9,6.1-3.8,9.6-4.7
		c1.9-0.5,3.9-0.9,6.1-1.4c8.4-1.7,17.9-3.7,22.5-11.1l0.3,0.2l-0.3-0.2c2.4-4,3.5-9.3,3.2-15.6c-0.2-5.9-1.7-11.7-4.5-16.9
		c-1.1-2.2-2.8-4.1-4.8-5.5c-1.2-0.7-2.7-1-4.1-0.8c-0.9,0.1-1.7,0.1-2.6-0.1c-1.1-0.2-2.2-0.6-3.2-1.1c-1.1-0.5-2.2-0.9-3.4-1.2
		C306.1,227.7,304.9,227.6,303.7,227.6L303.7,227.6z"/>
	<path class="st2" d="M359.1,261.5L355,277l10,1.8l5.7-20.8c0,0-8.9-6.8-10.2-6.8C359,251.1,359.1,261.5,359.1,261.5L359.1,261.5z"
		/>
	<path class="st2" d="M190.1,206.4"/>
	<path class="st2" d="M348.3,251.3c0,0,1.4,3.1,3.4,3.7c2,0.5,6.5-1.7,7-1.4c0.5,0.3,12.2,9,13.3,9.3c1.1,0.3,3.2-2.5,4.1-5.8
		c0,0-11.3-7.7-12.1-8.5c-0.7-0.8-1.6-5.7-2.7-7.5L348.3,251.3z"/>
	<path class="st2" d="M190.1,206.4"/>
	<path class="st2" d="M190.1,206.4"/>
	<path class="st2" d="M190.1,206.4"/>
	<path class="st2" d="M373.1,255c0,0,1-3.2-0.8-3.5c-0.1-0.9-0.8-1.6-1.8-1.6c-0.3,0-0.5,0.1-0.8,0.2c0,0-0.6-2.4-2.5-1.9
		c-1.9,0.5-3.4,5-3.1,6.2c0.3,1.1,1.7,0.4,2.5-0.6c0,0-1,1.8-0.3,2.3c0.9,0.7,1.9-0.5,2.7-1.4c0,0-1.2,2.1,0.6,2.3
		c1.3,0.1,2.6-2.6,2.6-2.6L373.1,255z"/>
	<path class="st2" d="M190.1,206.4"/>
	<path class="st2" d="M364.6,245.2c0,0-1.1-1.9-2.2-0.2c-1.1,1.6-2.5,4.7-0.6,5.1C363.7,250.4,365.1,246.8,364.6,245.2L364.6,245.2z
		"/>
	<path class="st3" d="M362.1,250.4c-0.1,0-0.2,0-0.3,0c-0.5-0.1-0.9-0.4-1.1-0.8c-0.6-1.3,0.7-3.7,1.5-4.8c0.3-0.5,0.8-0.8,1.4-0.8
		c0.9,0,1.4,1,1.5,1.1l0,0.1c0.3,1.6-0.2,3.2-1.2,4.4C363.4,250.1,362.7,250.4,362.1,250.4L362.1,250.4z M363.4,244.7
		c-0.3,0-0.5,0.3-0.7,0.5c-1,1.4-1.7,3.3-1.4,4.1c0.1,0.2,0.3,0.4,0.5,0.4c0.5,0,1-0.2,1.3-0.6c0.8-1,1.2-2.3,1.1-3.7
		C364.1,245.1,363.8,244.7,363.4,244.7L363.4,244.7z"/>
	<path class="st2" d="M359.1,262.5c0,0-1.2-5.9-1.4-7c-0.2-1.8,0.2-4.6,1.8-5.1c1.6-0.4,5.2-0.9,4.6,0.7c-0.5,1.4-3.7,1.7-3.7,1.7
		s2.2,2.2,1.9,4.4"/>
	<path class="st2" d="M190.1,206.4"/>
	<path class="st2" d="M382.3,240c0,0-13.1-1.3-18.5,1.8c-1.3,0.8-2.6,1.7-3.9,2.7c-2.9,2.3-5.6,4.9-7.8,6.3
		c-4.2,2.8-8.3,3.4-11.1-1.1c-2.4-3.8-1-5.7,2.2-9.1c1.6-1.7,4.9-4.5,7.8-7.6c1.7-1.7,3.1-3.7,4.3-5.8c2.4-5.1,1.7-12.9,1.7-12.9
		L382.3,240L382.3,240z"/>
	<path class="st2" d="M190.1,206.4"/>
	<path class="st3" d="M360.7,243.9c-2.9,2.3-6.4,5.3-8.5,6.8c-4.7,3.5-7.6,3.9-10.7-0.5c-3.1-4.4-1.4-6.3,1.8-9.7
		c1.6-1.7,4.9-4.5,7.8-7.6c0,0,0.2,3.2,3.4,7.1C356.1,242,358.3,243.4,360.7,243.9L360.7,243.9z"/>
	<path class="st3" d="M190.1,206.4"/>
	<path class="st4" d="M386,238.9c-2.9,2.6-9.5,0.4-15.8-4.9c-3.2-2.7-6.1-5.9-8.4-9.4c-4.7-6.9-6.2-13.7-3.2-16.3
		c3.7-3.3,12.8,0.9,20.4,9.4C386.5,226.1,389.7,235.6,386,238.9z"/>
	<path class="st3" d="M361.8,207.2c4.5,0,11.2,4,17,10.5c7.6,8.4,10.8,18,7.1,21.2c-0.9,0.8-2.1,1.2-3.3,1.1c-3.3,0-7.9-2.2-12.5-6
		c-1.6-1.4-3.2-2.9-4.6-4.4c-1.4-1.6-2.7-3.2-3.8-4.9c-4.7-6.9-6.2-13.7-3.2-16.3C359.5,207.5,360.6,207.1,361.8,207.2 M361.8,206.4
		c-1.4-0.1-2.8,0.4-3.9,1.3c-3.2,2.9-2,9.8,3.1,17.3c2.4,3.6,5.3,6.8,8.6,9.6c4.7,3.9,9.5,6.2,13,6.2c1.4,0.1,2.8-0.4,3.9-1.4
		c2-1.8,2.4-5.2,0.9-9.5c-1.8-4.8-4.5-9.1-7.9-12.8C373.6,210.6,366.7,206.4,361.8,206.4L361.8,206.4z"/>
	<path class="st2" d="M375.4,227.4l-5.2,6.5c-3.2-2.7-6.1-5.9-8.4-9.4l7.6-4.6L375.4,227.4L375.4,227.4z"/>
	
		<ellipse transform="matrix(0.7727 -0.6347 0.6347 0.7727 -57.3574 287.2013)" class="st3" cx="372.4" cy="223.7" rx="2.2" ry="4.8"/>
	<path class="st3" d="M190.1,206.4"/>
	<path class="st3" d="M190.1,206.4"/>
	<path class="st4" d="M276.5,303.2l-2,43.6c0,0,27,0.3,42.5-6.2c1.3-4.2,2.8-8.2,4.6-12.2c2.3-4.6,12-11.4,9-29
		c0,0,23,14.6,29.5,7.9c6.5-6.7,9.7-37.9,9.7-37.9l-13.5-4.3l-6.1,19.3c0,0-38.9-18.8-47.9-21.2c-3.4-0.9-13.8,4.7-25.8,12.4"/>
	<path class="st3" d="M301.5,276.3c0,0,6.2,19.4,7.3,27.6c1.1,8.2,1.2,21.8,1.2,21.8s9.9-30.2,8.7-48.9L301.5,276.3L301.5,276.3z"/>
	<path class="st3" d="M190.1,206.4"/>
	<path class="st3" d="M190.1,206.4"/>
	<path class="st2" d="M316.5,265.9l2.1,10.9c0,0,0.1,6.3-6.9,5.7c-4.2-0.4-8-2.6-10.3-6.1l-2.8-19c0.2-3.5,0-6.9-0.8-10.3
		c8-1.7,13.2-8.9,13.2-8.9s3.6,3.6,5,4.7c1.2,0.8,2.2,1.7,3.1,2.8c1.5,1.9,2,4.5,2.4,6.8c0.5,2.8,0.7,5.5,0.7,8.3
		C322.1,266.1,316.5,265.9,316.5,265.9z"/>
	<path class="st2" d="M190.1,206.4"/>
	<path class="st3" d="M317.5,271.2c0,0-4.4,1-7.8-1.4c-3.4-2.4-3.5-5.4-3.5-5.4s5.4,2.3,10.4,1.5
		C316.5,265.9,317.5,271.2,317.5,271.2z"/>
	<path class="st3" d="M190.1,206.4"/>
	<path class="st2" d="M310.7,247.3c0,0,4.5,4.6,3.8,5.6c-0.7,1.1-3.1,0.9-3.1,0.9"/>
	<path class="st2" d="M190.1,206.4"/>
	<ellipse transform="matrix(0.9743 -0.2251 0.2251 0.9743 -47.8598 77.6796)" class="st3" cx="316.7" cy="248.7" rx="1" ry="1.1"/>
	<ellipse transform="matrix(0.9743 -0.2251 0.2251 0.9743 -48.3468 75.4467)" class="st3" cx="306.7" cy="249.7" rx="1" ry="1.1"/>
	<path class="st2" d="M301.2,251.1c-1.1-1.8-3.7-2-5.4-1.3c-1.2,0.4-2,1.6-2.1,2.8c0,0.8,0.1,1.5,0.4,2.3c0.5,1.3,1.2,2.6,2.1,3.7
		c0.4,0.6,1,1,1.6,1.3c0.8,0.3,1.8,0.1,2.4-0.6"/>
	<path class="st2" d="M190.1,206.4"/>
	<path class="st2" d="M315.1,255.3l-5.3,0.5c0,0,1.1,8.1,3.5,7.9C315.7,263.5,315.7,257.6,315.1,255.3z"/>
	<path class="st2" d="M190.1,206.4"/>
	<path class="st2" d="M221.2,290.2l85,61.3l85-61.3v100.5H221.2V290.2z"/>
	<path class="st2" d="M190.1,206.4"/>
	<path class="st2" d="M190.1,206.4"/>
	<path class="st2" d="M261.8,344.7c0,0,3.4,9,4.3,9.4s10.4,4.4,9.7,6.2c-0.7,1.8-5-0.4-5-0.4s6.2,7.2,4.6,8.5
		c-1.6,1.3-7.2,3.8-9.4,2.8c-2.2-1-13.2-14.7-15.6-20.6"/>
	<path class="st2" d="M190.1,206.4"/>
	<path class="st4" d="M276.5,275.6c-20.3,13-44.9,32.1-47,36.6c-3.3,7.1,21.5,42.7,21.5,42.7l13.5-8.5l-12.3-26.7l24.3-16.5"/>
	<path class="st4" d="M190.1,206.4"/>
	<path class="st4" d="M190.1,206.4"/>
	<path class="st2" d="M384.3,359.6l10.8,5.5l17.2-17.2L384.3,359.6z"/>
	<path class="st2" d="M190.1,206.4"/>
	<path class="st2" d="M412.3,348l-35.5,8.5l-8.1-4.6L412.3,348z"/>
	<path class="st2" d="M190.1,206.4"/>
	<path class="st2" d="M376.8,356.5l2.5,11.7l5-8.5l28-11.6L376.8,356.5z"/>
	<path class="st2" d="M190.1,206.4"/>
	<path class="st2" d="M190.1,206.4"/>
	<path class="st2" d="M190.1,206.4"/>
	<path class="st2" d="M190.1,206.4"/>
	<path class="st2" d="M190.1,206.4"/>
	<path class="st2" d="M190.1,206.4"/>
	<path class="st2" d="M407.7,311.2l21.8,9.4c1,0.5,1.5,1.7,1.1,2.7c0,0,0,0,0,0l0,0l-4.7,10.8c-0.5,1-1.7,1.5-2.7,1.1l-21.8-9.4
		c-1-0.5-1.5-1.7-1.1-2.7c0,0,0,0,0,0l4.7-10.8C405.4,311.2,406.6,310.7,407.7,311.2L407.7,311.2z"/>
	<path class="st5" d="M424.2,335.9c-0.3,0-0.5-0.1-0.8-0.2l-22.6-9.8c-0.5-0.2-0.9-0.6-1.1-1.1c-0.2-0.5-0.2-1,0-1.5l5-11.6
		c0.4-1,1.6-1.5,2.6-1l22.6,9.8c0.5,0.2,0.9,0.6,1.1,1.1c0.2,0.5,0.2,1,0,1.5l-5,11.6c-0.2,0.5-0.6,0.9-1.1,1.1
		C424.7,335.8,424.5,335.8,424.2,335.9L424.2,335.9z M406.7,311.2c-0.5,0-0.9,0.3-1.1,0.7l-5.1,11.6c-0.3,0.6,0,1.3,0.6,1.6
		l22.6,9.8c0.3,0.1,0.6,0.1,0.9,0c0.3-0.1,0.5-0.4,0.7-0.6l5-11.6c0.1-0.3,0.1-0.6,0-0.9c-0.1-0.3-0.3-0.5-0.6-0.7l-22.6-9.8
		C407,311.3,406.8,311.2,406.7,311.2L406.7,311.2z M190.1,206.4 M190.1,206.4 M190.1,206.4 M190.1,206.4 M190.1,206.4 M190.1,206.4"
		/>
</g>
<g id="_3b512fe030">
	<g>
		<defs>
			<rect id="SVGID_1_" x="73.2" width="301" height="361.3"/>
		</defs>
		<clipPath id="SVGID_00000145763145374323483510000011747489936482771391_">
			<use xlink:href="#SVGID_1_"  style="overflow:visible;"/>
		</clipPath>
		<g style="clip-path:url(#SVGID_00000145763145374323483510000011747489936482771391_);">
			<g>
				<g>
					<path class="st7" d="M318.7,8c5.2,0.8,9.8,2.9,13.6,6.5c4.8,4.4,7.6,9.8,8.3,16.3c0.5,4.5,0,8.8-1.7,13
						c-3.9,9-10.7,14.6-20.5,16c-7.5,1.1-14.3-0.7-20.3-5.5c-0.9-0.7-1.8-1.6-2.6-2.4c-0.3-0.3-0.6-0.4-1.2-0.4
						c-2.1,0.4-4.3,0.6-6.4,0.9c-0.4,0.1-0.9,0.2-1.4-0.1c0.6-0.9,1.1-1.8,1.7-2.6c0.8-1.2,1.7-2.4,2.6-3.6c0.3-0.4,0.3-0.6,0.1-1.1
						c-2-4.3-2.8-8.8-2.4-13.4c0.5-5.8,2.7-10.9,6.6-15.2c4.2-4.6,9.4-7.4,15.5-8.4c0.3-0.2,0.6,0,0.9-0.2c2.1,0,4.1,0,6.2,0
						C318,8,318.4,7.8,318.7,8z"/>
					<path class="st8" d="M190,353.5c-17.5,0-35,0-52.5,0c0-0.2,0.1-0.3,0.2-0.4c0.5-0.3,1-0.3,1.5-0.3c16.4,0,32.7,0,49.1,0
						c0.6,0,1.2-0.1,1.7,0.4l0,0C190.1,353.3,190.1,353.4,190,353.5C190.1,353.5,190,353.5,190,353.5z"/>
					<path class="st9" d="M137.5,353.3c0,0.1,0,0.1,0,0.2c-13.4,0-26.7,0-40.1,0c0-0.2,0-0.3,0.2-0.4c0.5-0.3,1.1-0.3,1.6-0.3
						c12.2,0,24.4,0,36.6,0c0.5,0,1,0,1.4,0.2C137.4,353.1,137.5,353.2,137.5,353.3z"/>
					<path class="st9" d="M237.6,353.5c0-0.1,0-0.1,0-0.2c0,0,0-0.1,0-0.1c0.5-0.4,1-0.4,1.6-0.4c10.2,0,20.4,0,30.6,0
						c0.5,0,1,0,1.4,0.3c0.1,0.1,0.2,0.2,0.1,0.4C260.1,353.5,248.8,353.5,237.6,353.5z"/>
					<path class="st9" d="M338.4,353.5c-11.1,0-22.3,0-33.4,0c0-0.2,0.1-0.3,0.2-0.4c0.5-0.3,1.1-0.3,1.6-0.3c10,0,19.9,0,29.9,0
						c0.5,0,1.1,0,1.6,0.3C338.4,353.2,338.4,353.4,338.4,353.5z"/>
					<path class="st9" d="M362.1,352.6c0.1,0,0.1,0,0.2,0c0,0.3,0,0.6,0,0.9c-5,0-10,0-15.1,0c-0.1-0.1,0-0.3,0.1-0.4
						c0.5-0.3,1.1-0.3,1.7-0.3c3.6,0,7.2,0,10.8,0C360.6,352.9,361.4,352.9,362.1,352.6z"/>
					<path class="st9" d="M295.2,353.5c-5,0-10,0-15.1,0c-0.1-0.2,0-0.3,0.1-0.4c0.5-0.3,1-0.3,1.5-0.3c3.9,0,7.9,0,11.8,0
						c0.5,0,1,0,1.5,0.3C295.1,353.2,295.2,353.4,295.2,353.5z"/>
					<path class="st10" d="M311.6,7.8C311.3,8.1,311,8,310.7,8c0-0.1,0-0.1,0-0.2C311,7.8,311.3,7.8,311.6,7.8z"/>
					<path class="st10" d="M318.7,8c-0.3,0-0.7,0.1-0.9-0.2c0.3,0,0.6,0,0.9,0C318.7,7.9,318.7,7.9,318.7,8z"/>
					<path class="st11" d="M74.4,314.7c-0.1,0-0.1,0-0.2,0c0-0.1,0-0.3,0-0.4c0.1,0,0.1,0,0.2,0C74.6,314.5,74.6,314.6,74.4,314.7z"
						/>
					<path class="st12" d="M74.4,353.3c0,0.1,0,0.1,0,0.2c-0.2,0-0.3,0-0.2-0.2C74.3,353.3,74.3,353.3,74.4,353.3z"/>
					<path class="st7" d="M345.5,170.3c2.3,5.3,4.1,10.7,5.2,16.4c0.7,3.7,1,7.4,0.7,11.2c-0.3,4.1-1.1,8.1-2,12.1
						c-2.1,9.3-4.8,18.4-7.7,27.4c-2.3,7.2-4.7,14.4-7.3,21.5c-0.3,0.9-0.4,1.7,0,2.6c3.6,9.8,7.1,19.7,10.6,29.5
						c2.9,8.2,5.8,16.4,8.8,24.7c1.1,3.2,2.3,6.4,3.4,9.6c0.6,1.6,0.6,1.6-1.1,1.6c-0.4,0-0.8,0-1.2,0c-0.5,0.3-1,0.2-1.5,0.2
						c-6.8,0-13.6,0-20.3,0c-0.7,0-1.3,0-2,0.1c-1.4,0.3-2-0.6-2.5-1.7c-2.4-5.4-4.9-10.8-7.3-16.2c-3.4-7.6-6.9-15.2-10.3-22.8
						c-3.3-7.2-6.5-14.3-9.7-21.5c-0.6-1.3-0.3-2.6-0.2-3.9c0.3-3.6,0.5-7.1,0.8-10.7c0.3-3.4,0.5-6.8,0.8-10.1
						c0.3-3.3,0.5-6.7,0.7-10c0.1-1.3,0.4-2.5,0.2-3.9c-1.2,1.5-2.3,3-3.5,4.5c-6.5,8.4-13,16.8-19.5,25.1c-0.9,1.1-1.2,2.2-0.9,3.7
						c2.7,16.5,5.4,33.1,8.1,49.6c0.8,5.1,1.6,10.1,2.5,15.2c0.1,0.5,0.2,1,0.2,1.5c0.1,1-0.2,1.2-1.2,1.3c-0.7,0.1-1.3,0-2-0.1
						c-1.3-0.1-2.6-0.1-3.9-0.1c-5.5,0-11,0-16.4,0c-1.8,0-3.6-0.3-5.3-0.4c-0.5-2.7-1-5.4-1.5-8.1c-0.8-4.3-1.5-8.7-2.3-13
						c-0.8-4.7-1.7-9.5-2.6-14.2c-1-5.5-2-11.1-3-16.6c-0.9-5.2-1.9-10.4-2.8-15.6c-0.5-3-1-5.9-1.6-8.9c-0.2-0.8-0.1-1.6,0.2-2.4
						c3.1-7.8,6.1-15.7,9.1-23.5c3.2-8.3,6.4-16.6,9.6-24.9c0.4-1.9,1.3-3.7,2-5.5c1.3-3.3,2.5-6.7,3.9-10c0.2-0.4,0.2-1,0.8-1.1
						c6.8,2.7,13.8,3.9,21,4.6c2.9,0.3,5.7,0.5,8.6,0.4c4.3,0,8.4-0.9,12.4-2.1c9.9-2.9,18.7-8,27-13.9c0.6-0.5,1.3-0.9,1.9-1.3
						C344.6,170.4,345,170.1,345.5,170.3z"/>
					<path class="st13" d="M190,353.3c-0.4,0-0.7,0-1.1,0c-16.7,0-33.3,0-50,0c-0.4,0-0.9,0-1.3,0c0,0,0-0.1-0.1-0.1
						c-0.4-0.4-0.4-0.9-0.4-1.5c0-7.9,0-15.7,0-23.6c0-0.4,0-0.9,0.2-1.3c0.3-0.5,0.8-0.6,1.3-0.6c3.6,0,7.2-0.1,10.9,0
						c0.3,0,0.5,0,0.8,0c1.4-0.1,2.8,0,4.2,0c10.8,0,21.6,0,32.4,0c0.5,0,1,0,1.5,0.1c-10.2-4.9-20.4-9.6-30.6-14.5
						c-2.6-1.2-5.1-2.4-7.6-3.8c-0.2-0.3-0.3-0.6-0.1-0.9c4.7-6.1,9.5-12.2,14.2-18.3c0.6-0.8,0.7-0.8,1.7-0.3
						c5.1,2.3,10.2,4.6,15.3,6.9c8.4,3.8,16.8,7.6,25.1,11.4c0.3,0.1,0.7,0.3,1,0.6c0,0.4-0.4,0.6-0.6,0.9c-2.6,2.9-5.3,5.8-7.9,8.7
						c-2.9,3.1-5.7,6.3-8.6,9.4c-0.4,0.4-0.4,0.8-0.4,1.3c0,3.9,0,7.7,0,11.6C190,344,190,348.6,190,353.3z"/>
					<path class="st13" d="M74.4,314.7c0-0.1,0-0.3,0-0.4c0.1,0,0.1-0.1,0.2-0.1c4.4-1.3,8.9-2.4,13.2-3.8c3-0.9,6-1.8,9-2.6
						c0.1,0,0.2-0.1,0.4-0.2c-6.9-9-13.9-18-20.8-27c0.4-0.3,0.8-0.2,1.2-0.2c7.4,0,14.8,0,22.1,0c9.5,0,19,0,28.4,0
						c0.9,0,1.4,0.3,1.9,0.9c6.6,8.7,13.3,17.3,19.9,25.9c0.2,0.3,0,0.5-0.2,0.6c-0.6,0.2-1.2,0.2-1.7,0.2c-16.1,0-32.2,0-48.4,0
						c-0.1,0-0.1,0-0.3,0.1c3.5,1.7,6.9,3.4,10.3,5c4.6,2.1,9.2,4.4,13.8,6.5c3.9,1.8,7.7,3.7,11.6,5.5c0.8,0.4,1.9,0.5,2.3,1.6
						c-0.3,0.5-0.9,0.5-1.4,0.6c-9.7,1.6-19.5,3.1-29.2,4.8c-1.1,0.2-2-0.2-2.9-0.7c-2.1-1.2-4.1-2.4-6.3-3.5c-2.6-1.1-5-2.6-7.5-4
						c-4.8-2.6-9.6-5.4-14.3-8c-0.4-0.2-1-0.4-1.1-1C74.6,314.8,74.5,314.8,74.4,314.7z"/>
					<path class="st13" d="M253.4,101.2c0.8-0.7,1.7-1.3,2.6-1.9c0.5,0.3,0.7,0.8,0.9,1.2c2.4,5.4,5.7,10.2,9.6,14.6
						c1.9,2.2,4.1,4.1,6.2,6.1c0.3,0.4,0.5,0.5,0.7-0.1c2.5-4,4.9-8,7-12.3c3.7-7.6,6-15.6,6.8-24c0.1-0.6,0.1-1.3,0.5-1.8
						c1.5,0.1,2.9,0.6,4.4,1.1c5.4,1.9,10.1,5,14.3,8.9c3.9,3.6,6.8,7.9,9.7,12.3c3.7,5.6,7,11.5,10.1,17.5
						c2.3,4.4,4.6,8.8,6.7,13.3c2.3,4.8,4.7,9.6,6.8,14.5c-0.1,0.3-0.2,0.5-0.4,0.8c-2.1,2.7-4.5,5.2-6.8,7.7
						c-0.4,0.4-0.8,0.7-1.2,1c-0.2,0.1-0.5,0.4-0.8,0c-0.1-0.3-0.1-0.7,0-1c1.3-4.4,1.1-8.7,0.1-13.1c-0.8-3.8-2.1-7.5-3.8-10.9
						c-2.3-4.6-4.4-9.3-6.6-13.9c-0.1-0.3-0.3-0.6-0.3-0.9c0.1-5.6-2.1-10.1-6-14c-3.5-3.6-7.7-6-12.2-8c-1.9-0.8-4-0.3-5.1,1.5
						c-2.5,4.1-4.2,8.4-4.4,13.3c-0.2,3.4,0.3,6.8,1.7,9.9c1.5,3.3,3.6,6.2,6.5,8.4c0.4,0.3,0.8,0.6,1.4,0.7
						c0.4,0.2,0.4,0.6,0.5,0.9c1.2,3.5,2.3,7.1,3.4,10.6c0.2,0.6,0.4,1.1,0.3,1.7c-0.1,0.3-0.3,0.5-0.5,0.6
						c-2.2,0.1-4.5-0.2-6.7-0.3c-2.7-0.2-5.4-0.4-8-0.6c-3.8-0.3-7.6-0.6-11.3-0.8c-3.5-0.2-7-0.5-10.5-0.7c-0.5,0-1,0-1.5-0.3
						c-0.4-0.3-0.6-0.8-0.9-1.3c-1.5-3-3-6.1-4.4-9.1c-1-2.8-2.5-5.3-3.7-7.9c-0.2-0.5-0.6-1-0.6-1.7c-0.2-2-0.8-4-1.2-5.9
						c-1-4.8-2.1-9.6-3.1-14.4C253.4,102.3,253.2,101.8,253.4,101.2z"/>
					<path class="st14" d="M261.5,326.7c8.2,0,16.4,0,24.6,0c0.5,0,1-0.2,1.4,0.2c0.6,0.2,0.6,0.8,0.8,1.3
						c2.1,7.1,4.1,14.1,6.2,21.2c0.3,0.9,0.6,1.8,0.8,2.7c0.1,0.4,0.3,0.8,0,1.2c0,0,0,0.1,0,0.1c-1.1,0-2.2,0-3.3,0
						c-3.9,0-7.8,0-11.7,0c-0.1,0-0.2,0-0.3-0.1c-1.3-0.3-2.2-1.3-3.3-2c-0.7-0.5-1.2-0.5-1.9,0c-1.1,0.7-2,1.6-3.3,2
						c-0.1,0-0.1,0-0.2,0.1c-0.4,0-0.9,0-1.3,0c-10.3,0-20.7,0-31,0c-0.4,0-0.9,0-1.3,0c-0.3-1.5-0.1-3.1,0.1-4.6
						c0.6-3.3,2.6-5.7,5.3-7.6c2.6-1.8,5.4-2.9,8.5-3.7c1.1-0.3,2.2-0.5,3.2-0.7c3.8-0.9,6.5-3.1,8-6.8c0.3-0.9,0.7-1.8,0.8-2.7
						C262.8,326.7,262.1,327.2,261.5,326.7z"/>
					<path class="st14" d="M330.6,326.9c0.4-0.3,0.8-0.2,1.2-0.2c7.3,0,14.5,0,21.8,0c0.4,0,0.8,0,1.2,0.2c0.4,2.1,1.1,4,1.7,6
						c1.7,5.9,3.4,11.8,5.2,17.7c0.1,0.4,0.2,0.8,0.4,1.1c0,0.3,0.1,0.6,0.1,0.9c0.1,0.7-0.3,0.7-0.8,0.7c-2.8,0-5.6,0-8.4,0
						c-1.9,0-3.8,0-5.6,0c-0.1,0-0.1,0-0.2-0.1c-1-0.3-1.7-1-2.5-1.5c-1.6-1.1-1.6-1.1-3.3,0c-0.8,0.5-1.5,1.3-2.6,1.5
						c-0.1,0-0.2,0-0.3,0.1c-0.3,0-0.6,0-0.9,0c-10.6,0-21.1,0-31.7,0c-0.3,0-0.6,0-0.9,0c0,0,0-0.1,0-0.1c-0.6-0.8-0.5-1.7-0.5-2.6
						c0.4-5.8,3.9-9.3,8.9-11.7c2.6-1.2,5.4-2,8.2-2.6c4.5-0.9,7.2-3.7,8.5-7.9C330.2,327.9,330.2,327.3,330.6,326.9z"/>
					<path class="st15" d="M254.8,90.6c-1.3,0.2-2.7,0.4-4.1,0.3c-2.9-0.3-5.4-1.5-7.6-3.2c-3.3-2.5-5.9-5.6-8-9
						c-2.2-3.5-3.9-7.2-5.3-11c-0.1-0.2-0.2-0.5-0.3-0.7c-0.1-0.6,0.5-0.8,0.9-0.9c2.9-1.1,5.8-1.8,8.9-2.1c1.8-0.2,3.6-0.2,5.4-0.2
						c0.4,0,1-0.1,1.2,0.4c0.2,0.4-0.2,0.7-0.5,1c-0.4,0.5-0.8,1-1.1,1.5c-0.3,0.5-0.6,1.1,0.1,1.4c0.6,0.3,0.9-0.1,1.2-0.6
						c0.4-0.6,0.8-1.1,1.2-1.6c1.4-1.4,3-1.7,4.9-1.2c0.4,0.1,0.7,0.3,1.1,0.3c0.4,0.1,0.7,0.1,1-0.3c0.3-0.4,0.1-0.7-0.2-1
						c-0.2-0.3-0.6-0.5-0.4-0.9c0.3-0.4,0.7-0.4,1.1-0.2c1.3,1.2,2.3,2.7,3.8,3.7c0.5,0.3,0.9,0.7,1.5,1c0.8,0.4,1.3,0.2,1.4-0.7
						c0.1-0.9,0.4-1.7,0.8-2.5c1.2-2.2,4-2.9,6.1-1.7c1.9,1.1,2.9,2.7,3.3,4.7c0.2,1.2,0.4,2.4,0.2,3.6c-0.2,0.9-0.4,1.8-1,2.6
						c-0.3,0.4-0.2,0.6,0.2,1c2.9,2.7,5.8,5.5,8.7,8.3c0.4,0.4,0.3,0.9,0.3,1.4c-0.3,3.3-0.9,6.5-2,9.6c-1.1,3.2-3.1,5.3-6.5,6
						c-2.1,0.4-4.2,1-6.4,0.4c-2-0.6-3.7-1.6-4.9-3.4c-0.5-0.9-1.2-1.6-1.8-2.4c-0.1-0.7,0.5-0.8,0.9-1.1c3.5-2.5,5.8-5.8,6.6-10.1
						c0.2-1,0-2,0.3-2.9c-0.7,2.1-2,3.9-3.4,5.6c-1.7,2-3.8,3.6-6.3,4.6C255.7,90.4,255.3,90.5,254.8,90.6z"/>
					<path class="st14" d="M254.2,62.9c-0.3-0.2-0.6,0-1,0.1c0.1,0.4,0.4,0.4,0.6,0.6c0.5,0.4,0.6,1,0.4,1.5
						c-0.3,0.5-0.8,0.7-1.4,0.5c-0.2-0.1-0.4-0.2-0.6-0.2c-2.3-1-4.2-0.5-5.8,1.6c-0.3,0.4-0.5,0.8-0.8,1.2
						c-0.4,0.6-1.1,0.8-1.6,0.5c-0.5-0.3-0.7-0.9-0.4-1.5c0.4-0.9,1-1.7,1.7-2.4c0.1-0.1,0.2-0.3,0.4-0.4c-0.2-0.3-0.5-0.2-0.7-0.2
						c-3.4,0-6.8,0.1-10.1,0.9c-1.5,0.4-3.1,0.8-4.5,1.4c-0.3,0.1-0.7,0.2-0.9,0.6c-1.4,0.4-2.6,1.1-3.8,1.7
						c-0.2,0.1-0.3,0.2-0.5,0.3c-1.4,0.7-2.6,0.1-2.8-1.5c-0.3-2.4,0.4-4.4,1.9-6.3c1.2-1.4,2.7-2.5,4.4-3.3c0.7-0.3,0.9-0.7,1-1.5
						c0.1-3.5,1.5-6.6,3.8-9.2c2.8-3.1,6.2-5,10.2-6.2c0.2-0.1,0.4-0.1,0.5-0.2c0.5-0.1,0.6-0.3,0.4-0.8c-0.3-0.9-0.2-1.8,0.4-2.6
						c0.9-1.2,2.1-1.3,3.3-1c1.1,0.3,1.9,1.3,2,2.5c0,0.1,0,0.2,0,0.3c0,0.8,0,0.8,0.8,0.8c2.6,0,5.2,0.5,7.7,1.3
						c2.9,0.9,5.5,2.4,7.5,4.7c2,2.3,3.3,5,4.1,8c0.5,1.8,0.8,3.7,1.1,5.6c0.1,0.6-0.1,1.2-0.4,1.7c-0.6,0.6-1.4,0.7-2.2,0.6
						c-2.6-0.3-5.2-0.6-7.9-0.9c-0.9-0.1-1.7,0-2.6,0.4C257,62.1,255.7,62.9,254.2,62.9z"/>
					<path class="st14" d="M261.9,188.1c-0.4,0.4-0.8,0.4-1.2,0c-2.8-3-5.7-6-8.5-9.2c-2-2.3-4.1-4.5-6-6.7
						c-1.9-2.2-3.7-4.4-5.5-6.6c-2.1-2.4-3.9-5.1-5.7-7.7c-2.1-3.1-2.6-6.4-1.8-10c0.7-3.3,1.9-6.5,3.2-9.6c0.4-0.1,0.7,0.2,0.9,0.4
						c1.5,1.9,3.1,3.8,4.6,5.7c0.1,0.2,0.2,0.4,0.2,0.6c-0.2,0.5-0.6,0.6-1,0.8c-0.9,0.5-1.9,1-2.8,1.6c-1.5,1-1.4,2.9,0.2,3.6
						c1,0.5,1.5,1.1,1.7,2.2c0.2,1.3,1.1,2.2,2.5,2.4c0.9,0.1,1.3,0.6,1.4,1.5c0.3,1.9,0.7,2.4,2.7,2.7c0.7,0.1,1,0.5,1.3,1
						c1.3,2.1,2.1,2.3,4.2,1c1.8-1.1,3.6-2.3,5.4-3.4c1.5-1,2.5-0.9,4,0.1c3.5,5.4,7.1,10.9,10.6,16.4c0.2,0.3,0.4,0.5,0.6,0.8
						c0.2,0.4,0.3,0.7,0.1,1.1c-0.1,0.3-0.3,0.4-0.5,0.6c-0.4,0.2-0.7,0.5-1.1,0.8c-2.8,2.8-5.7,5.7-8.5,8.5
						C262.7,187.2,262.4,187.8,261.9,188.1z"/>
					<path class="st7" d="M229.8,130.2c-1.3,0.8-1.3,0.8-2.2-0.4c-1-1.3-2.1-2.6-3.1-3.9c-0.3-0.4-0.6-0.5-1-0.3
						c-3.2,1.4-6.7,1.8-10.2,1.5c-4.4-0.4-8.3-2.2-11.6-5.1c-3.7-3.3-6-7.4-6.7-12.2c-1-6.5,0.5-12.3,4.9-17.2c0.5-0.6,1-1,1.6-1.5
						c2.7-2.6,6-4.2,9.6-4.8c6.3-1.1,12,0.5,17,4.5c4.1,3.3,6.6,7.7,7.4,12.9c0.9,5.5-0.1,10.7-3.6,15.2c-0.2,0.3-0.6,0.5-0.3,0.9
						c1.2,1.5,2.4,3.1,3.6,4.6c0.6,0.8,0.6,0.8-0.2,1.4c-0.1,0.1-0.3,0.3-0.4,0.4C233.1,127.6,231.5,129,229.8,130.2z"/>
					<path class="st16" d="M330.6,160.2c0.5-0.3,1-0.8,1.4-1.2c2.4-2.4,4.6-4.8,6.7-7.4c0.3-0.3,0.5-0.7,0.9-0.9
						c1.4,3.2,2.9,6.4,4.3,9.6c0.2,0.5,0.1,0.9-0.2,1.4c-0.5,0.6-1.1,1-1.4,1.7c-1.2,1.7-2.9,3-4.4,4.3
						c-10.3,8.8-22.2,14.2-35.6,16.5c-5.8,1-11.6,1.5-17.4,1.2c-3.4-0.1-6.7-0.7-9.9-2.1c-0.6-0.3-1.3-0.6-1.7-1.1
						c-0.4-1.3-0.8-2.7-0.1-4.1c0.4-0.3,0.8-0.2,1.3-0.1c4,0.6,8.1,0.7,12.1,0.5c11-0.6,21.6-2.7,31.1-8.7c0.4-0.2,0.8-0.4,1.1-0.7
						c0.1-0.1,0.2-0.1,0.3-0.2c0.2-0.1,0.4-0.2,0.6-0.3c1.5-0.4,3-0.7,4.4-1.4c2.3-1.2,4-3,5.2-5.3
						C329.7,161.2,329.9,160.5,330.6,160.2z"/>
					<path class="st14" d="M258,123.2c1.2,2.4,2.3,4.7,3.5,7.1c0.3,0.7,0.7,1.4,0.8,2.1c-0.8,3.2-1.6,6.4-2.9,9.4
						c-0.5,0.5-1.1,0.2-1.7,0.1c-1.9-0.4-3.9-0.8-5.8-1.4c-1-0.3-1.8-0.1-2.7,0.4c-0.8,0.5-1.5,1.2-2.5,1.3c-1-0.8-1.6-1.9-2.5-2.9
						c-1.7-2-3.2-4.2-4.9-6.2c-0.4-0.4-1.1-0.9-0.3-1.6c1.8-3.8,3.6-7.6,4.8-11.6c0.6-2,1.2-4.1,1.9-6.1c1.3-3.6,2.8-7.1,5-10.3
						c0.2-0.3,0.4-0.7,0.7-0.9c0.6,0.4,0.7,1,0.8,1.6c0.6,2.8,1.3,5.5,1.7,8.3c0.4,3,1.9,5.6,3.2,8.3
						C257.6,121.6,258,122.4,258,123.2z"/>
					<path class="st17" d="M273.5,182.1c3.8,2,7.9,2.7,12.1,2.9c6.6,0.3,13-0.5,19.4-1.8c11.5-2.4,21.9-7.2,31.1-14.6
						c1.8-1.4,3.5-3,5.1-4.6c0.3-0.3,0.6-0.6,1.1-0.7c0,0.3,0,0.5,0.1,0.7c1,2.1,2,4.2,3,6.3c-0.6,0-0.9,0.5-1.3,0.8
						c-6.3,4.6-12.9,8.7-20.1,11.9c-4.8,2.1-9.8,3.8-15,4.7c-3.9,0.7-7.8,0.8-11.8,0.4c-3.3-0.3-6.7-0.7-10-1.2
						c-4.4-0.7-8.8-1.7-13-3.3c-0.4-0.1-0.8-0.2-1.1-0.5C273,182.6,273.1,182.3,273.5,182.1z"/>
					<path class="st14" d="M259.8,96.6c0.3,0,0.5,0.2,0.6,0.4c2.4,2.7,5.4,3.4,8.8,2.7c1.2-0.2,2.4-0.5,3.5-0.9
						c1.4-0.5,2.4-1.4,3.2-2.6c1.2-2,1.9-4.2,2.4-6.4c0.5-2.3,0.8-4.7,0.9-7c0.7,0,1.4,0,2.1,0c0.1-0.1,0.3,0,0.5-0.2
						c0.9-0.1,1.9-0.1,2.8,0.1c-0.2,0.3-0.5,0.4-0.8,0.4c-1-0.1-1.2,0.5-1.4,1.3c-0.9,6.1-2.3,12.1-4.1,18c-1.3,4-2.7,8-4.9,11.6
						c-0.7,1.1-0.9,2.1-0.6,3.4c0.3,1.3,0.8,2.7,0.6,4.1c0,0.1,0,0.2,0,0.3c0,0.2,0,0.5-0.3,0.5c-0.3,0.1-0.4-0.2-0.5-0.4
						c0-0.1-0.1-0.3-0.1-0.4c-0.7-1-0.8-2.3-1-3.5c-0.2-1.6-0.9-2.9-2-4.1c-4-4.3-7.3-9.1-9.5-14.6c-0.3-0.7-0.7-1.5-0.5-2.3
						C259.6,96.8,259.7,96.7,259.8,96.6z"/>
					<path class="st16" d="M273.5,121.4c-0.5-1.9-0.7-3.8-1.2-5.7c-0.1-0.3,0.1-0.4,0.2-0.6c3.8-6.1,5.8-12.8,7.5-19.6
						c1-4,1.7-8,2.4-12c0.1-0.8,0.1-0.8,0.9-0.8c0.5,0,1,0,1.4,0c1,0.2,2,0.2,3,0.5c-0.6,8.1-2.4,15.9-5.8,23.3
						c-2.2,4.9-4.7,9.6-7.7,14.1C274,120.8,273.8,121.1,273.5,121.4z"/>
					<path class="st15" d="M273.5,182.1c-0.1,0.3-0.3,0.7-0.4,1c-1.4,3.5-2.7,7-4.1,10.5c-0.7,1.7-1.3,3.4-2,5.1
						c-0.1,0.3-0.2,0.6-0.5,0.7c-1.4-3.3-2.8-6.7-4.2-10c-0.2-0.4-0.4-0.9-0.5-1.3c0-0.5,0.3-0.7,0.6-1c3.1-3.1,6.1-6.2,9.2-9.3
						c0.2-0.2,0.4-0.7,0.9-0.4c0.3,0,0.4,0.2,0.6,0.4c0.1,0.1,0.1,0.2,0.1,0.3C273.2,179.4,273.3,180.8,273.5,182.1z"/>
					<path class="st17" d="M239.1,131.6c-0.2,0.4-0.1,0.7,0.2,1c1.1,1.4,2.3,2.8,3.4,4.2c1.1,1.5,2.3,3,3.5,4.4
						c0.2,0.3,0.5,0.6,0.5,1c-0.1,0.5-0.5,0.6-0.8,0.8c-1,0.6-1.9,1.1-2.9,1.7c-0.3,0.2-0.6,0.4-1,0.2c-1.3-1.5-2.5-3-3.7-4.5
						c-0.6-0.8-1.1-1.7-2-2.2c-1.9-2.5-3.9-4.9-5.8-7.4c-0.2-0.3-0.4-0.5-0.7-0.7c0.1-0.3,0.3-0.6,0.5-0.8c1.2-0.9,2.4-1.9,3.6-2.9
						c0.2-0.2,0.5-0.3,0.8-0.3c0.5,1,1.3,1.7,1.9,2.6c0.5,0.8,1.2,1.5,1.8,2.2C238.6,131.4,238.8,131.6,239.1,131.6z"/>
					<path class="st17" d="M231.6,119.9c-0.5-0.2-0.3-0.5-0.1-0.7c0.9-1.2,1.7-2.5,2.3-3.9c5.3-12.2-2.3-26.2-15.3-28.6
						c-5.9-1.1-11.2,0.3-15.9,3.8c-0.3,0.2-0.6,0.6-1,0.6c1.8-2.2,4.1-3.7,6.6-4.8c3.3-1.5,6.9-1.9,10.5-1.5c4,0.4,7.6,1.9,10.8,4.5
						c2.2,1.7,3.9,3.9,5.3,6.3c1.2,2.2,1.9,4.5,2.3,7c0.2,1.4,0.2,2.7,0.2,4.1c-0.2,4.8-1.8,9-5,12.5
						C231.9,119.3,231.7,119.5,231.6,119.9z"/>
					<path class="st16" d="M259.5,96.9c1,2.7,2.1,5.3,3.6,7.8c2.2,3.7,4.8,7,7.8,10.1c0.4,0.4,0.6,0.8,0.7,1.4
						c0.3,1.7,0.6,3.5,0.9,5.2c-1.2-0.7-2.1-1.7-3-2.6c-5-4.8-9.3-10.3-12.3-16.6c-0.5-1-0.9-2-1.3-2.9
						C257.1,98.5,258.3,97.6,259.5,96.9z"/>
					<path class="st17" d="M254.2,62.9c0.3-0.3,0.7-0.4,1.1-0.5c1.2-0.4,2.4-0.9,3.6-1.5c0.7-0.4,1.5-0.2,2.3-0.1
						c2.5,0.2,5,0.5,7.5,0.9c0.9,0.1,1.7,0.1,2.5-0.2c-0.2,0.3-0.1,0.6,0,0.9c0.3,1.6,0.2,3.3,0.2,4.9c-0.4-0.2-0.4-0.6-0.6-0.9
						c-0.3-0.9-0.8-1.7-1.4-2.4c-1.3-1.5-2.9-2.2-4.9-1.6c-1.9,0.6-2.8,2.1-3.1,4c0,0.3,0,0.6-0.1,0.9c-0.2,0.7-0.6,0.9-1.4,0.7
						c-0.7-0.2-1.2-0.6-1.8-1.1C256.6,65.7,255.3,64.4,254.2,62.9z"/>
					<path class="st17" d="M254.8,90.6c0.3-0.2,0.6-0.4,0.9-0.6c3.5-1.3,6-3.8,8-6.8c0.7-1.1,1.3-2.2,1.9-3.4
						c0.1-0.1,0.1-0.3,0.4-0.3c0.1,1.5-0.1,3-0.4,4.4c-1,4-3.3,7.1-6.7,9.4c-0.3,0.2-0.8,0.3-0.9,0.8c-0.7-0.9-1.4-1.8-2.1-2.8
						C255.6,91,255.3,90.6,254.8,90.6z"/>
					<path class="st16" d="M258,123.2c-1-2-2-4.1-3-6.1c-0.7-1.3-0.9-2.7-1.2-4.1c-0.7-3.3-1.4-6.5-2.1-9.8c0-0.2-0.1-0.4-0.2-0.6
						c0.6-0.5,1.2-0.9,1.9-1.3c0.3,0.2,0.3,0.6,0.4,0.9c1.4,6.7,2.9,13.4,4.3,20.1C258.2,122.6,258.4,122.9,258,123.2z"/>
					<path class="st18" d="M149.7,307.7c0.3-0.1,0.2-0.3,0.2-0.5c0.1,0,0.1,0,0.2,0c0.1,0.2-0.1,0.6,0.2,0.7
						c0.4,0.5,0.4,1.1,0.4,1.7c0,5.1,0,10.3,0,15.4c0,0.6,0.1,1.2-0.4,1.6c-0.2,0-0.4,0-0.6,0c-0.4-0.4-0.4-0.9-0.4-1.4
						c0-5.4,0-10.7,0-16.1C149.3,308.6,149.3,308.1,149.7,307.7z"/>
					<path class="st19" d="M281.9,82.5c0,0.4-0.3,0.2-0.5,0.2C281.5,82.4,281.7,82.4,281.9,82.5z"/>
					<path class="st16" d="M318,26.7c0,1.6-0.5,3.1-1.1,4.6c-0.3,0.9-0.7,1.8-0.9,2.7c-0.3,1.5-0.2,2.9,0.4,4.3
						c0.3,0.7,0.3,0.8-0.4,1c-0.2,0.1-0.5,0.2-0.7,0.3c-1.5,0.5-1.6,0.5-2.1-1.1c-0.7-1.9-0.6-3.8,0-5.6c0.3-1.1,0.7-2.1,1.1-3.1
						c0.3-0.9,0.5-1.9,0.4-2.8c-0.2-2.5-2.1-3.8-4.5-3.1c-0.9,0.2-1.7,0.7-2.5,1.2c-0.2,0.2-0.5,0.4-0.7,0.5
						c-0.5,0.2-1.1,0.1-1.5-0.3c-0.4-0.4-0.4-1-0.1-1.5c0.2-0.3,0.5-0.6,0.8-0.8c1.7-1.4,3.6-2.3,5.8-2.4c3.7-0.2,5.8,2.5,6,5.3
						C318,26.1,318,26.4,318,26.7z"/>
					<path class="st20" d="M317.2,47.2c-1.4,0-2.5-1.1-2.5-2.5c0-1.3,1.1-2.4,2.4-2.4c1.3,0,2.4,1.3,2.4,2.7
						C319.5,46.3,318.5,47.2,317.2,47.2z"/>
					<path class="st14" d="M97.5,327.6c0.4-0.1,0.7,0.2,1,0.3c2,1.1,4.1,2.2,6.1,3.4c0.7,0.4,1.3,0.5,2.1,0.4
						c4.7-0.8,9.5-1.6,14.3-2.3c4.3-0.7,8.6-1.4,12.8-2.1c1.2-0.2,2.4-0.4,3.6-0.6c0.1,0,0.1,0.1,0.2,0.2c0,8.8,0,17.5,0,26.3
						c-0.5,0-1,0.1-1.4,0.1c-12.4,0-24.8,0-37.3,0c-0.4,0-0.9,0-1.3,0c0,0,0-0.1,0-0.1c-0.5-0.4-0.4-1-0.4-1.5c0-7.5,0-15,0-22.5
						C97,328.6,97,328,97.5,327.6z"/>
					<path class="st13" d="M304.7,218.9c0,1.5,0,3.1,0,4.6c0,0.4,0.1,1.1-0.4,1.1c-0.6,0-0.4-0.7-0.4-1.1c0-2.9,0-5.8,0-8.7
						c0-0.8-0.2-1.3-0.9-1.8c-3.7-2.7-7.3-5.3-10.9-8c-0.3-0.2-0.9-0.4-0.6-0.9c0.4-0.5,0.8,0,1.1,0.3c3.8,2.8,7.5,5.5,11.3,8.3
						c0.6,0.5,0.9,1,0.9,1.8C304.7,216,304.7,217.5,304.7,218.9z"/>
					<path class="st7" d="M137.5,326.9c-0.1-0.1-0.1-0.1-0.2-0.2c-0.8-0.6-1.7-0.9-2.5-1.3c-2.6-1.2-5.1-2.4-7.7-3.6
						c-5.6-2.6-11.1-5.3-16.7-7.9c-2.3-1.1-4.5-2.1-6.8-3.2c-1.8-0.9-3.5-1.8-5.4-2.7c0.4-0.4,0.7-0.2,1.1-0.2c5.4,0,10.8,0,16.2,0
						c11,0,21.9,0,32.9,0c0.5,0,1,0,1.4,0c0,0.3-0.1,0.6-0.1,0.9c0,5.8,0,11.5,0,17.3c0,0.3,0,0.5,0,0.8c-3.7,0-7.3,0-11,0
						C138.3,326.7,137.9,326.6,137.5,326.9z"/>
					<path class="st7" d="M150.4,326.7c0-0.4,0-0.9,0-1.3c0-5.8,0-11.6,0-17.4c6.5,3.1,13,6.3,19.5,9.3c6.5,3,13,6.1,19.6,9.3
						c-0.4,0.2-0.6,0.2-0.9,0.2c-12.4,0-24.8,0-37.3,0C151,326.7,150.7,326.7,150.4,326.7z"/>
					<path class="st14" d="M330.6,160.2c-0.1,0.2-0.3,0.4-0.4,0.7c-2,4.7-5.6,7.2-10.5,8c-0.1,0.1-0.3,0.1-0.4,0.2l0,0
						c-0.7,0.3-1.4,0.4-2.1,0.4c-8.3,0.2-16.5-1.2-24.6-2.6c-6.2-1.1-12.4-2.4-18.6-3.9c-0.6-0.1-1.2-0.2-1.7-0.3
						c-1-0.2-2-0.5-3-0.7c-1.5-0.3-1.6-0.5-1.7-2.1c0-2.7-0.4-5.4-0.7-8c-0.3-2.9-0.4-5.7-0.9-8.6c0.1-0.9,0.6-1,1.4-0.6
						c1.2,0.4,2.5,0.3,3.8,0.4c4,0.3,8.1,0.6,12.1,0.9c2.6,0.2,5.1,0.3,7.7,0.5c3.7,0.3,7.3,0.5,11,0.8c1.2,0.1,2.4,0.2,3.6,0.3
						c2,0.5,3.8,1.4,5.8,1.9c-1.4-0.5-2.9-1.1-4.3-1.6c-0.4-0.1-0.9-0.2-1.2-0.7c-1.3-4.4-2.7-8.7-4.2-13c-0.3-0.1-0.5-0.5-0.6-0.8
						c-1.4-4.3-3.2-8.5-3.7-13.1c-0.4-3.5-0.2-6.9,1.5-10.1c0.6-1.2,1.4-2.2,2.3-3.1c0.8-0.8,1.6-1.1,2.7-1c3.1,0.2,5.8,1.4,8.1,3.5
						c2.6,2.3,4.5,5.1,6.2,8.2c0.8,1.4,1.7,2.8,2.1,4.5c1.3,2.8,2.5,5.5,3.9,8.3c1.1,2.3,2.2,4.6,3.3,6.9c2,4.1,3.4,8.5,4.1,13
						c0.5,3.8,0.5,7.6-0.7,11.4C330.6,159.8,330.6,160,330.6,160.2z"/>
					<path class="st16" d="M320.2,120.2c-0.5-0.9-1-1.9-1.5-2.8c-1.3-2.4-2.7-4.8-4.4-6.9c-1.6-2-3.4-3.8-5.8-4.9
						c-1.6-0.8-3.3-1.1-5.1-1.2c-0.7,0-1.3,0.2-1.8,0.7c-1.9,1.7-3,3.8-3.6,6.2c-0.8,3.2-0.6,6.4,0.1,9.6c0.6,2.7,1.6,5.3,2.4,7.9
						c0.3,1.1,0.7,2.2,1.1,3.3c-0.1,0.2-0.2,0.4-0.4,0.2c-0.7-0.5-1.5-1-2.1-1.6c-3.9-3.8-6.6-8.3-7.2-13.8
						c-0.4-3.8,0.1-7.5,1.4-11.1c0.7-2,1.6-4,2.7-5.8c1-1.7,2.4-2.5,4.4-2.4c0.5,0,1,0.1,1.4,0.3c5.1,2.2,9.8,5,13.5,9.2
						c2.6,2.9,4.3,6.3,4.9,10.2C320.3,118.2,320.3,119.2,320.2,120.2z"/>
					<path d="M267.3,142.7c-1,0-1,0-1.1,0.7c-0.4,0.4-0.8,0.2-1.2,0.1c-1.7-0.4-3.3-0.7-4.9-1.2c-0.2-0.1-0.3-0.1-0.5-0.2
						c-0.1-0.1-0.1-0.2-0.2-0.3c1-2.8,1.6-5.7,2.6-8.5c0.1-0.3,0.1-0.7,0.5-0.8c1.6,3.3,3.2,6.6,4.8,9.9
						C267.3,142.4,267.3,142.5,267.3,142.7z"/>
					<path class="st21" d="M305.8,145.1c2,0.6,3.9,1.4,5.9,2c0.2,0.1,0.5,0.2,0.4,0.5c-0.1,0.3-0.4,0.3-0.6,0.2
						c-1.9-0.7-3.7-1.3-5.6-2c-0.2-0.1-0.3-0.2-0.4-0.4C305.7,145.4,305.8,145.3,305.8,145.1z"/>
					<path class="st14" d="M234.4,73.4c-0.4,0-0.8,0-1.2-0.1c-0.7-0.2-1-0.7-0.9-1.3c0.1-0.6,0.5-0.9,1.2-1c0.3,0,0.6,0,0.9,0
						c1.1,0,2-0.3,2.4-1.5c0.1-0.3,0.3-0.6,0.6-0.7c0.4-0.2,0.8-0.2,1.2,0.1c0.4,0.3,0.5,0.7,0.4,1.2c-0.2,1-0.7,1.8-1.5,2.4
						C236.5,73.1,235.5,73.4,234.4,73.4z"/>
					<path class="st22" d="M237.6,76.5c0-1.4,1-2.2,2.3-1.8c1.2,0.3,2.2,1.8,2,3.1c-0.2,1.3-1.3,1.9-2.5,1.4
						C238.4,78.8,237.6,77.7,237.6,76.5z"/>
					<path class="st22" d="M252.5,73.2c0,0.7-0.2,1.4-0.9,1.8c-0.7,0.4-1.4,0.2-2-0.2c-0.9-0.6-1.4-1.6-1.4-2.7
						c0.1-1.4,1.3-2.1,2.5-1.5C251.7,71,252.4,72.1,252.5,73.2z"/>
					<path class="st14" d="M242.4,72.9c0-0.3,0-0.5,0.3-0.6c0.3,0,0.4,0.2,0.4,0.4c0.3,1.4,0.6,2.7,0.9,4.1c0.2,1.2,0.5,2.3,0.7,3.5
						c0.2,0.8,0.2,0.9,1.1,0.7c0.7-0.1,1.3-0.2,2-0.3c0.3,0,0.6-0.1,0.6,0.3c0.1,0.4-0.3,0.5-0.5,0.5c-1,0.2-2,0.3-2.9,0.5
						c-0.6,0.1-0.8-0.3-0.8-0.8c-0.3-1.5-0.6-3-1-4.5c-0.2-1-0.4-1.9-0.6-2.9C242.5,73.4,242.5,73.1,242.4,72.9z"/>
					<path class="st14" d="M256.2,79c0.2,0,0.4,0,0.5,0.1c0.2,0.2,0.2,0.4,0,0.5c-0.1,0-0.1,0.1-0.2,0.1c-2,0.1-3.3,1.4-4.5,2.8
						c-0.1,0.2-0.3,0.3-0.4,0.5c-0.1,0.1-0.3,0.2-0.5,0c-0.2-0.1-0.2-0.3-0.1-0.5c0-0.1,0.1-0.1,0.1-0.2c1.1-1.3,2.2-2.6,3.8-3.2
						C255.4,79.1,255.8,79.1,256.2,79z"/>
					<path class="st17" d="M262.9,56.5c0,0.1,0,0.3-0.2,0.3c-0.3,0.1-0.4-0.1-0.5-0.3c-0.2-0.5-0.3-0.9-0.5-1.4
						c-2-5.3-5.6-9.2-10.6-11.9c-0.4-0.2-1.2-0.3-0.8-0.9c0.3-0.5,0.8,0,1.1,0.2c5.3,2.8,9.1,7,11.1,12.6
						C262.7,55.6,262.9,55.9,262.9,56.5z"/>
					<path class="st17" d="M237.5,52.7c0.2-4.5,2.6-7.5,6.4-9.7c0.1-0.1,0.2-0.1,0.3-0.1c0.3-0.1,0.6-0.3,0.8,0.1
						c0.1,0.3-0.2,0.5-0.4,0.6c-0.8,0.4-1.6,0.9-2.3,1.5c-2.4,2-3.9,4.5-3.9,7.7c0,0.3,0.1,0.8-0.4,0.8
						C237.5,53.6,237.4,53.3,237.5,52.7z"/>
					<path class="st15" d="M259.3,141.8c0.1,0,0.1,0,0.2,0.1c0.1,0,0.1,0,0.2,0.1c1.9,0.4,3.8,0.9,5.7,1.3c0.2,0.1,0.5,0.1,0.8,0.1
						c0.3,0.4,0.4,0.8,0.4,1.2c0.3,3.5,0.6,6.9,1,10.4c0.1,1.1,0.3,2.3,0.3,3.4c0,0.5,0.3,1.1-0.1,1.6c-0.1,0.1-0.3,0.2-0.5,0.2
						c-1.9-0.4-3.8-0.5-5.5-1.4c-0.6-0.6-1.5-0.5-2.3-0.7c-0.4-0.1-0.6,0.2-0.9,0.4c-2.1,1.3-4.2,2.6-6.3,4
						c-0.2,0.2-0.5,0.3-0.8,0.4c-1,0.5-2,0.3-2.8-0.6c-0.2-0.2-0.4-0.4-0.5-0.6c-0.4-1-1-1.6-2.3-1.6c-1.2,0-2-1.1-2.1-2.5
						c-0.1-1.1-0.3-1.7-1.6-1.8c-1.4-0.1-2.1-1.3-2.4-2.6c-0.1-0.2-0.1-0.5-0.1-0.8c0-0.4-0.2-0.7-0.6-0.8c-0.3-0.1-0.6-0.2-0.9-0.4
						c-0.7-0.4-1.3-0.9-1.2-1.8c0.1-0.9,0.2-1.8,1.1-2.4c1.3-0.8,2.7-1.4,3.9-2.3c1.6-0.8,3.2-1.8,4.7-2.7c1.1-0.6,2.2-1.2,3.2-1.9
						c0.4-0.2,0.8-0.3,1.2-0.2c2.5,0.6,4.9,1.1,7.4,1.7C258.9,141.9,259.1,142.1,259.3,141.8z"/>
					<path class="st13" d="M272.2,162.4c0.3-0.3,0.6-0.1,0.9-0.1c3.3,0.7,6.6,1.5,9.9,2.2c5.9,1.2,11.8,2.4,17.8,3.2
						c5.6,0.8,11.2,1.5,16.9,1.3c0.5,0,1,0,1.5,0c-1,0.9-2.3,1.5-3.4,2.2c-5.4,3-11.2,5.1-17.3,6.2c-3.3,0.6-6.6,1-10,1.2
						c-2.5,0.2-5,0.2-7.5,0.2c-2.4,0-4.7-0.2-7-0.6c-0.3,0-0.6,0-0.9,0c0,0-0.1,0-0.1,0c-0.3-0.3-0.3-0.7-0.1-1.1
						c0-0.4,0.2-0.8-0.2-1.1c-0.7-1.8-0.5-3.7-0.6-5.6c-0.2-2.2-0.3-4.4-0.4-6.6C271.8,163.2,271.8,162.7,272.2,162.4z"/>
					<path d="M272.2,162.4c0.1,2.5,0.3,5,0.4,7.5c0.1,2,0.3,4,0.3,6c-1.3-1.7-2.3-3.5-3.5-5.2c-2.4-3.7-4.8-7.4-7.2-11.1
						c-0.2-0.2-0.3-0.5-0.4-0.8c1.7,0.2,3.4,0.7,5.1,1c0.3,0.1,0.6,0.1,0.9,0.2c0.4,1.3,0.4,1.3,1.7,1.6
						C270.4,161.9,271.3,161.9,272.2,162.4z"/>
					<path class="st23" d="M273,177c0,0.4,0.1,0.7,0.1,1.1c-0.4,0-0.4-0.4-0.5-0.6C272.6,177.2,272.7,177,273,177z"/>
					<path class="st16" d="M206,94.4c4.4-3.9,9.4-4.4,14.5-2.1c6.3,2.9,9.8,8,10.1,14.9c0.2,4.9-1.8,8.8-6.1,11.4
						c-0.2,0.1-0.3,0.3-0.5,0.4c-0.5,0.2-0.9,0.5-1.4,0.8c-3,1.2-6,1.2-9,0.1c-7.1-2.6-11.1-7.8-11.8-15.3c-0.3-3.2,0.4-6.3,2.7-8.8
						c0.2-0.3,0.3-0.6,0.7-0.7l0,0c0.1-0.1,0.1-0.2,0.2-0.2l0,0c0.1-0.1,0.1-0.2,0.2-0.2l0,0C205.8,94.5,205.9,94.4,206,94.4z"/>
					<path class="st17" d="M204.8,95.7c-3,4.3-3.4,9-1.5,13.8c2.1,5.5,6.1,9.1,11.8,10.5c2.6,0.7,5.1,0.4,7.6-0.4
						c0.3-0.1,0.3,0,0.3,0.3c-5.1,3.1-12.2,2.7-17-1.2c-4-3.2-6.1-7.5-6-12.6c0.1-4.1,1.6-7.7,4.6-10.5
						C204.8,95.4,204.9,95.5,204.8,95.7z"/>
					<path class="st24" d="M223,119.9c-0.1-0.1-0.2-0.2-0.3-0.3c0.4-0.3,0.9-0.5,1.4-0.6c0.1,0,0.1,0.1,0.1,0.1c0,0,0,0.1-0.1,0.1
						C223.8,119.4,223.4,119.7,223,119.9z"/>
					<path class="st25" d="M204.8,95.7c-0.1-0.1-0.1-0.1-0.2-0.2c0.1-0.3,0.3-0.5,0.7-0.4C205.3,95.4,205.1,95.5,204.8,95.7z"/>
					<path class="st26" d="M224.1,119.2c0-0.1,0-0.1,0-0.2c0.1-0.2,0.3-0.2,0.5-0.3C224.5,118.9,224.4,119.1,224.1,119.2z"/>
					<path class="st27" d="M205.5,94.8c0,0.1-0.1,0.2-0.2,0.2C205.3,94.9,205.4,94.8,205.5,94.8z"/>
					<path class="st28" d="M205.8,94.6c0,0.1-0.1,0.2-0.2,0.2C205.5,94.7,205.6,94.6,205.8,94.6z"/>
					<path class="st29" d="M206,94.4c0,0.1-0.1,0.2-0.3,0.2C205.8,94.5,205.9,94.4,206,94.4z"/>
					<path class="st13" d="M319.3,169c0.1-0.2,0.2-0.2,0.4-0.2C319.6,169,319.5,169.1,319.3,169z"/>
					<path class="st14" d="M259.7,141.9c-0.1,0.1-0.2,0-0.2-0.1C259.6,141.8,259.7,141.8,259.7,141.9z"/>
				</g>
			</g>
		</g>
	</g>
</g>
</svg>
