<?xml version="1.0" encoding="utf-8"?>
<!-- Generator: Adobe Illustrator 28.0.0, SVG Export Plug-In . SVG Version: 6.00 Build 0)  -->
<svg width="28" height="26" version="1.1" id="Layer_1" xmlns="http://www.w3.org/2000/svg"
     xmlns:xlink="http://www.w3.org/1999/xlink" x="0px" y="0px"
     viewBox="0 0 28 26" style="enable-background:new 0 0 28 26;" xml:space="preserve">
  <style type="text/css">
    .st0{display:none;fill-rule:evenodd;clip-rule:evenodd;fill:#FFFFFF;}
    .st1{fill:#FFFFFF;}
  </style>
  <path class="st0" d="M20.5,0C25,2.3,28,6.9,28,12.2C28,19.8,21.7,26,14,26S0,19.8,0,12.2C0,6.9,3,2.3,7.5,0L14,12.9L20.5,0z"/>
  <image style="display:none;overflow:visible;" width="496" height="480" xlink:href="5167C5C3.jpg"
         transform="matrix(5.667281e-02 0 0 5.667281e-02 -1.1942 -0.444)">
  </image>
  <path class="st1" d="M16.4,0H0v14.9V26h14.1C21.8,26,28,20.3,28,13.4V0H16.4z M4.7,4.1H12v0.8c0,3.4-3.1,6.2-6.8,6.2H4.7V4.1z
     M23.5,13.7c0,4.6-4.1,8.4-9.2,8.4H4.7v-7.2h0.8c6,0,10.9-4.4,10.9-9.9V4.1h7.1V13.7z"/>
</svg>
